<?xml version="1.0" encoding="UTF-8"?>
<svg version="1.1" xmlns="http://www.w3.org/2000/svg" width="144" height="144">
<path d="M0 0 C47.52 0 95.04 0 144 0 C144 47.52 144 95.04 144 144 C96.48 144 48.96 144 0 144 C0 96.48 0 48.96 0 0 Z " fill="#0F386A" transform="translate(0,0)"/>
<path d="M0 0 C0.99 0 1.98 0 3 0 C3.33573747 5.483712 2.30662752 9.14970025 0 14 C-0.84295818 15.97508649 -1.67547259 17.95464859 -2.5 19.9375 C-2.92667969 20.96230469 -3.35335937 21.98710938 -3.79296875 23.04296875 C-5.27332508 26.66960221 -6.65574391 30.32098334 -8 34 C-5.98109837 32.04565627 -4.21334421 30.03655258 -2.5 27.8125 C-1.675 26.884375 -0.85 25.95625 0 25 C0.99 25 1.98 25 3 25 C3.12190678 33.39802254 2.84327749 41.64251778 2 50 C8.33720122 43.85995615 13.56430848 36.69446219 18.7734375 29.59375 C20 28 20 28 22 26 C26.55555556 26.55555556 26.55555556 26.55555556 28 28 C28.09823996 29.47648876 28.12973519 30.95775417 28.125 32.4375 C28.12886719 33.64212891 28.12886719 33.64212891 28.1328125 34.87109375 C28 37 28 37 27 39 C26.77532169 40.53668865 26.59203195 42.07968054 26.4375 43.625 C26.35371094 44.44226563 26.26992187 45.25953125 26.18359375 46.1015625 C26.12300781 46.72804687 26.06242187 47.35453125 26 48 C29.8665284 44.777893 30.88059018 41.85077588 32 37 C32.66 37 33.32 37 34 37 C34.04898438 36.24074219 34.09796875 35.48148438 34.1484375 34.69921875 C34.22320312 33.70535156 34.29796875 32.71148437 34.375 31.6875 C34.44460937 30.70136719 34.51421875 29.71523437 34.5859375 28.69921875 C35 26 35 26 37 23 C37.99 23.33 38.98 23.66 40 24 C39.91621094 24.92683594 39.83242187 25.85367188 39.74609375 26.80859375 C39.64425781 28.00613281 39.54242188 29.20367187 39.4375 30.4375 C39.33308594 31.63246094 39.22867188 32.82742187 39.12109375 34.05859375 C39.08113281 35.02925781 39.04117188 35.99992187 39 37 C39.33 37.33 39.66 37.66 40 38 C40.07258946 40.18639453 40.08373783 42.37500389 40.0625 44.5625 C40.05347656 45.76003906 40.04445313 46.95757812 40.03515625 48.19140625 C40.02355469 49.11824219 40.01195313 50.04507813 40 51 C39.01 51 38.02 51 37 51 C36.505 45.06 36.505 45.06 36 39 C35.38125 40.546875 35.38125 40.546875 34.75 42.125 C33.20889632 45.74548759 31.26906772 48.7920077 29 52 C27.35 51.34 25.7 50.68 24 50 C24 49.01 24 48.02 24 47 C23.34 47 22.68 47 22 47 C21.74476562 47.57234375 21.48953125 48.1446875 21.2265625 48.734375 C19.86912841 51.24173733 18.28025896 53.1330456 16.375 55.25 C15.74335937 55.95640625 15.11171875 56.6628125 14.4609375 57.390625 C13.97882813 57.92171875 13.49671875 58.4528125 13 59 C11.35 58.67 9.7 58.34 8 58 C7.67 55.69 7.34 53.38 7 51 C6.01 52.32 5.02 53.64 4 55 C2.35 54.67 0.7 54.34 -1 54 C-1.02911321 50.9166866 -1.04683682 47.83340875 -1.0625 44.75 C-1.07087891 43.87730469 -1.07925781 43.00460938 -1.08789062 42.10546875 C-1.09272461 40.83896484 -1.09272461 40.83896484 -1.09765625 39.546875 C-1.10551147 38.38430176 -1.10551147 38.38430176 -1.11352539 37.19824219 C-1.00036998 35.00716402 -0.60552448 33.10362139 0 31 C-0.66 31 -1.32 31 -2 31 C-2.27714844 31.70382813 -2.55429687 32.40765625 -2.83984375 33.1328125 C-3.61775377 35.05532412 -4.42290677 36.96702046 -5.25390625 38.8671875 C-7.60994128 44.28255159 -9.59671341 49.08513001 -10 55 C-11.32 55 -12.64 55 -14 55 C-13.01391911 45.75404154 -11.82920536 36.9025662 -9 28 C-9.66 28 -10.32 28 -11 28 C-11.26554687 28.57878906 -11.53109375 29.15757813 -11.8046875 29.75390625 C-13.03627418 32.06816227 -14.49682037 33.88851066 -16.125 35.9375 C-20.06687046 41.65895276 -19.55937583 47.29784881 -19 54 C-20.9375 53.625 -20.9375 53.625 -23 53 C-24.78299293 49.43401415 -24.58276584 45.83939848 -24 42 C-21.14317073 34.49809718 -16.34584982 28.74398013 -10.85546875 22.99609375 C-8.94939789 21.13329806 -8.94939789 21.13329806 -8 19 C-7.34 19 -6.68 19 -6 19 C-5.81824219 18.13117187 -5.63648437 17.26234375 -5.44921875 16.3671875 C-2.95254833 4.92091388 -2.95254833 4.92091388 0 0 Z " fill="#E5F3FE" transform="translate(56,45)"/>
<path d="M0 0 C4.72326282 2.82835699 7.23244886 5.78722207 9 11 C9.22705078 13.5871582 9.22705078 13.5871582 9.1953125 16.30078125 C9.18886719 17.27724609 9.18242188 18.25371094 9.17578125 19.25976562 C9.15064453 20.77086914 9.15064453 20.77086914 9.125 22.3125 C9.11597656 23.33923828 9.10695313 24.36597656 9.09765625 25.42382812 C9.07416201 27.94945899 9.04131131 30.4746081 9 33 C7.02 32.505 7.02 32.505 5 32 C4.90203125 31.20335938 4.8040625 30.40671875 4.703125 29.5859375 C3.83008578 23.39940099 3.13535979 18.78150975 -1 14 C-5.66337361 11.66831319 -11.77285631 12.32260466 -16.6328125 13.80078125 C-30.492063 20.12216353 -39.53128015 34.1603591 -44.9375 47.9375 C-45.66052315 49.94589765 -46.34857814 51.96724985 -47 54 C-47.36609375 55.11632812 -47.7321875 56.23265625 -48.109375 57.3828125 C-49.07019885 61.28510587 -49.34550507 64.9438866 -49.3125 68.9375 C-49.30758545 69.64044189 -49.3026709 70.34338379 -49.29760742 71.06762695 C-49.13980772 78.04237366 -47.97223498 82.37035337 -43.75 88 C-41.08173123 90.25757558 -41.08173123 90.25757558 -37.5 90.5625 C-33.48648245 89.91747039 -32.01944297 88.61141014 -29 86 C-27.68 86 -26.36 86 -25 86 C-25 86.99 -25 87.98 -25 89 C-30.60435874 92.26071781 -35.44927337 94.55241637 -42 93 C-47.0942329 90.12279302 -49.74965628 86.35492557 -52 81 C-52.50279484 78.33814497 -52.90446611 75.80473374 -53.1875 73.125 C-53.26935547 72.43664062 -53.35121094 71.74828125 -53.43554688 71.0390625 C-53.63370738 69.36052643 -53.81827787 67.68039519 -54 66 C-55.31609006 69.77131688 -56.38258569 73.45081006 -57.125 77.375 C-57.29257812 78.24898438 -57.46015625 79.12296875 -57.6328125 80.0234375 C-57.81457031 81.00183594 -57.81457031 81.00183594 -58 82 C-59.98 82.495 -59.98 82.495 -62 83 C-65.16994164 72.47975618 -55.56130319 56.52383213 -51 47 C-49.47686844 44.2166584 -47.7843573 41.62027243 -46 39 C-44.89562652 37.2084608 -43.79147765 35.41678314 -42.6875 33.625 C-34.46600187 20.79875721 -17.87475872 -3.57495174 0 0 Z " fill="#D2EAFE" transform="translate(70,22)"/>
<path d="M0 0 C0.99 0 1.98 0 3 0 C3.33422168 5.85276576 2.21558727 10.42366523 0.3125 15.9375 C0.06822266 16.69740234 -0.17605469 17.45730469 -0.42773438 18.24023438 C-2.26013037 23.67247669 -4.77130831 28.27109183 -8 33 C-7.09507813 32.50886719 -7.09507813 32.50886719 -6.171875 32.0078125 C-3.62452701 30.82576973 -1.77587962 30.84578447 1 31 C1.103125 30.113125 1.20625 29.22625 1.3125 28.3125 C2.02684419 24.87065979 2.85956566 22.77463711 5 20 C7.125 19.125 7.125 19.125 9 19 C10.96822886 20.96822886 10.66248381 24.34808709 11 27 C15.36934056 25.23742101 16.58255716 22.68066517 18.75390625 18.6796875 C19.16511719 18.12539062 19.57632813 17.57109375 20 17 C20.99 17 21.98 17 23 17 C22.855625 18.175625 22.71125 19.35125 22.5625 20.5625 C21.9067075 26.27335967 21.65137755 32.00289831 21.37890625 37.7421875 C21 41 21 41 19 44 C17.125 43.875 17.125 43.875 15 43 C13.75 39.9375 13.75 39.9375 13 37 C9.16774573 36.91087781 5.73437848 37.12132271 2 38 C1.34 36.68 0.68 35.36 0 34 C-1.32 34 -2.64 34 -4 34 C-4 34.66 -4 35.32 -4 36 C-6.31 36 -8.62 36 -11 36 C-11 36.66 -11 37.32 -11 38 C-12.32 38 -13.64 38 -15 38 C-14.42655063 35.13275314 -14.1385485 34.1385485 -12 32 C-10.28791303 26.97074453 -9.40316619 21.88758931 -8.5625 16.6484375 C-7.98532184 13.93089033 -7.10249789 11.54493263 -6 9 C-5.34 9 -4.68 9 -4 9 C-3.71125 8.071875 -3.4225 7.14375 -3.125 6.1875 C-2 3 -2 3 0 0 Z " fill="#DAEEFE" transform="translate(113,59)"/>
<path d="M0 0 C0 3.20395416 -0.74335022 5.09399739 -2 8 C-2.66 8 -3.32 8 -4 8 C-4.11069824 8.54938232 -4.22139648 9.09876465 -4.33544922 9.66479492 C-4.84377727 12.17337533 -5.35932071 14.68042089 -5.875 17.1875 C-6.04902344 18.05181641 -6.22304687 18.91613281 -6.40234375 19.80664062 C-7.72961593 26.22178952 -9.49077671 31.41714476 -13 37 C-11.68 37 -10.36 37 -9 37 C-9 36.34 -9 35.68 -9 35 C-6.69 35 -4.38 35 -2 35 C-2 34.34 -2 33.68 -2 33 C-0.68 33 0.64 33 2 33 C2.99 34.98 2.99 34.98 4 37 C2.84371094 37.19916016 2.84371094 37.19916016 1.6640625 37.40234375 C0.66117187 37.57894531 -0.34171875 37.75554687 -1.375 37.9375 C-2.37273437 38.11152344 -3.37046875 38.28554687 -4.3984375 38.46484375 C-6.96909656 38.87712062 -6.96909656 38.87712062 -9 40 C-16.46666667 40.35555556 -16.46666667 40.35555556 -20 38 C-20 37.34 -20 36.68 -20 36 C-20.53625 36.495 -21.0725 36.99 -21.625 37.5 C-24.59358445 39.37489544 -26.55312427 39.23501425 -30 39 C-30 38.34 -30 37.68 -30 37 C-31.65 37 -33.3 37 -35 37 C-35.061875 37.556875 -35.12375 38.11375 -35.1875 38.6875 C-36.40703003 42.15847009 -38.08801937 43.78436256 -41 46 C-45.02034924 45.93185849 -47.1176825 45.8823175 -50 43 C-51.7325 42.566875 -51.7325 42.566875 -53.5 42.125 C-57 41 -57 41 -58.375 39.3125 C-59.20725538 36.23315511 -59.63472401 33.16572523 -60 30 C-60.66 30.99 -61.32 31.98 -62 33 C-62.66 33 -63.32 33 -64 33 C-62.71383443 26.56917213 -60.39374748 21.59579736 -57 16 C-56.34 16 -55.68 16 -55 16 C-55 23.59 -55 31.18 -55 39 C-53.68 39.33 -52.36 39.66 -51 40 C-50.71125 39.360625 -50.4225 38.72125 -50.125 38.0625 C-49 36 -49 36 -47 35 C-46.67 37.64 -46.34 40.28 -46 43 C-44.68 43 -43.36 43 -42 43 C-40.36323743 41.0399719 -40.36323743 41.0399719 -39 39 C-38.34 39 -37.68 39 -37 39 C-36.71125 38.401875 -36.4225 37.80375 -36.125 37.1875 C-35 35 -35 35 -33 32 C-32.34 32 -31.68 32 -31 32 C-30.67 32.99 -30.34 33.98 -30 35 C-27.98491642 35.73323796 -27.98491642 35.73323796 -26 36 C-21.95362483 29.78496201 -21.95362483 29.78496201 -19 23 C-18.67 23 -18.34 23 -18 23 C-18 27.29 -18 31.58 -18 36 C-17.01 36 -16.02 36 -15 36 C-15.14029419 33.8537974 -15.28738164 31.70803782 -15.4375 29.5625 C-15.51871094 28.36753906 -15.59992188 27.17257813 -15.68359375 25.94140625 C-15.67656114 23.11429756 -15.67656114 23.11429756 -17 22 C-16.91062197 20.47480724 -16.75462854 18.95318071 -16.5625 17.4375 C-16.46066406 16.61121094 -16.35882813 15.78492187 -16.25390625 14.93359375 C-16.17011719 14.29550781 -16.08632812 13.65742187 -16 13 C-15.67 13 -15.34 13 -15 13 C-14.22959149 19.06696699 -13.90293888 24.88514973 -14 31 C-13.01 31 -12.02 31 -11 31 C-10.88398437 29.84886719 -10.76796875 28.69773437 -10.6484375 27.51171875 C-10.09530463 23.10509355 -8.98164954 19.03184158 -7.625 14.8125 C-7.41617188 14.12736328 -7.20734375 13.44222656 -6.9921875 12.73632812 C-5.43052376 7.78947257 -3.6894605 3.6894605 0 0 Z " fill="#0F55A6" transform="translate(111,60)"/>
<path d="M0 0 C0.99 0.33 1.98 0.66 3 1 C2.91621094 1.92683594 2.83242187 2.85367188 2.74609375 3.80859375 C2.64425781 5.00613281 2.54242188 6.20367187 2.4375 7.4375 C2.33308594 8.63246094 2.22867188 9.82742187 2.12109375 11.05859375 C2.08113281 12.02925781 2.04117188 12.99992187 2 14 C2.495 14.495 2.495 14.495 3 15 C3.07258946 17.18639453 3.08373783 19.37500389 3.0625 21.5625 C3.05347656 22.76003906 3.04445312 23.95757812 3.03515625 25.19140625 C3.02355469 26.11824219 3.01195312 27.04507813 3 28 C2.01 28 1.02 28 0 28 C-0.33 24.04 -0.66 20.08 -1 16 C-1.4125 17.03125 -1.825 18.0625 -2.25 19.125 C-3.79110368 22.74548759 -5.73093228 25.7920077 -8 29 C-9.65 28.34 -11.3 27.68 -13 27 C-13 26.01 -13 25.02 -13 24 C-13.66 24 -14.32 24 -15 24 C-15.38285156 24.85851562 -15.38285156 24.85851562 -15.7734375 25.734375 C-17.13087159 28.24173733 -18.71974104 30.1330456 -20.625 32.25 C-21.25664063 32.95640625 -21.88828125 33.6628125 -22.5390625 34.390625 C-23.02117187 34.92171875 -23.50328125 35.4528125 -24 36 C-25.65 35.67 -27.3 35.34 -29 35 C-29.33 32.03 -29.66 29.06 -30 26 C-29.34 26 -28.68 26 -28 26 C-27.67 26.99 -27.34 27.98 -27 29 C-26.54109375 28.03578125 -26.0821875 27.0715625 -25.609375 26.078125 C-24.99001725 24.80187267 -24.37020128 23.52584263 -23.75 22.25 C-23.44964844 21.61578125 -23.14929688 20.9815625 -22.83984375 20.328125 C-21.01447985 16.59972214 -19.23040776 13.64306089 -16 11 C-15.34 11 -14.68 11 -14 11 C-13.67 13.64 -13.34 16.28 -13 19 C-12.34 18.34 -11.68 17.68 -11 17 C-11 19.64 -11 22.28 -11 25 C-7.1334716 21.777893 -6.11940982 18.85077588 -5 14 C-4.34 14 -3.68 14 -3 14 C-2.95101562 13.24074219 -2.90203125 12.48148438 -2.8515625 11.69921875 C-2.77679688 10.70535156 -2.70203125 9.71148437 -2.625 8.6875 C-2.55539063 7.70136719 -2.48578125 6.71523437 -2.4140625 5.69921875 C-2 3 -2 3 0 0 Z " fill="#DDF1FE" transform="translate(93,68)"/>
<path d="M0 0 C4.73360549 2.77902475 7.24185048 5.81494887 9 11 C9.22705078 13.5871582 9.22705078 13.5871582 9.1953125 16.30078125 C9.18886719 17.27724609 9.18242188 18.25371094 9.17578125 19.25976562 C9.15902344 20.26716797 9.14226562 21.27457031 9.125 22.3125 C9.11597656 23.33923828 9.10695313 24.36597656 9.09765625 25.42382812 C9.07416201 27.94945899 9.04131131 30.4746081 9 33 C7.68 32.67 6.36 32.34 5 32 C4.90203125 31.20335938 4.8040625 30.40671875 4.703125 29.5859375 C3.84365689 23.49556864 3.17231673 18.76836198 -1 14 C-1.66 13.195625 -2.32 12.39125 -3 11.5625 C-7.85362657 9.0345695 -12.7192375 10.22515128 -18 11 C-18 10.34 -18 9.68 -18 9 C-17.34 8.67 -16.68 8.34 -16 8 C-15.7525 7.21625 -15.505 6.4325 -15.25 5.625 C-14 3 -14 3 -11.375 1.1875 C-7.4446359 -0.19540589 -4.07382916 -0.97332335 0 0 Z " fill="#B4D8F9" transform="translate(70,22)"/>
<path d="M0 0 C0.99 0 1.98 0 3 0 C3.33572762 5.48355116 2.30684674 9.15017259 0 14 C-0.86423489 16.01654807 -1.7176125 18.03776961 -2.5625 20.0625 C-2.97628906 21.04347656 -3.39007813 22.02445313 -3.81640625 23.03515625 C-4.99685278 25.99211637 -6.02313288 28.97036141 -7 32 C-7.66 31.67 -8.32 31.34 -9 31 C-9 30.01 -9 29.02 -9 28 C-9.66 28 -10.32 28 -11 28 C-11.26554687 28.57878906 -11.53109375 29.15757813 -11.8046875 29.75390625 C-13.03627418 32.06816227 -14.49682037 33.88851066 -16.125 35.9375 C-20.06687046 41.65895276 -19.55937583 47.29784881 -19 54 C-20.9375 53.625 -20.9375 53.625 -23 53 C-24.78299293 49.43401415 -24.58276584 45.83939848 -24 42 C-21.14317073 34.49809718 -16.34584982 28.74398013 -10.85546875 22.99609375 C-8.94939789 21.13329806 -8.94939789 21.13329806 -8 19 C-7.34 19 -6.68 19 -6 19 C-5.81824219 18.13117187 -5.63648437 17.26234375 -5.44921875 16.3671875 C-2.95254833 4.92091388 -2.95254833 4.92091388 0 0 Z " fill="#DDF0FE" transform="translate(56,45)"/>
<path d="M0 0 C0 0.33 0 0.66 0 1 C-0.90878906 1.11214844 -0.90878906 1.11214844 -1.8359375 1.2265625 C-16.41245087 3.51395383 -26.95065705 13.89012217 -35.58203125 25.3125 C-37.82253767 28.48814113 -39.9406964 31.70430349 -42 35 C-42.61359375 35.97582031 -43.2271875 36.95164063 -43.859375 37.95703125 C-49.96904154 48.05420139 -55.13026036 58.84604456 -59 70 C-59.33 70 -59.66 70 -60 70 C-59.85816304 68.24967156 -59.71136571 66.49974466 -59.5625 64.75 C-59.48128906 63.77546875 -59.40007813 62.8009375 -59.31640625 61.796875 C-58.81023297 57.32255319 -58.34346876 55.06484637 -55 52 C-54.67 51.34 -54.34 50.68 -54 50 C-53.34 50 -52.68 50 -52 50 C-51.80857422 48.93265625 -51.80857422 48.93265625 -51.61328125 47.84375 C-50.15925473 41.10151238 -48.05713548 33.89400208 -43 29 C-42.01 28.67 -41.02 28.34 -40 28 C-38.77479736 24.99152582 -38.77479736 24.99152582 -38 22 C-37.34 22 -36.68 22 -36 22 C-35.71125 21.38125 -35.4225 20.7625 -35.125 20.125 C-34 18 -34 18 -32 16 C-31.01 16 -30.02 16 -29 16 C-28.67 14.68 -28.34 13.36 -28 12 C-27.01 12 -26.02 12 -25 12 C-25 10.68 -25 9.36 -25 8 C-24.34 8 -23.68 8 -23 8 C-23 7.34 -23 6.68 -23 6 C-21.35 5.67 -19.7 5.34 -18 5 C-18 4.34 -18 3.68 -18 3 C-11.75690073 0.22528921 -6.80203375 -0.37634203 0 0 Z " fill="#0A53AC" transform="translate(70,21)"/>
<path d="M0 0 C1.98 0 3.96 0 6 0 C6.680625 1.7015625 6.680625 1.7015625 7.375 3.4375 C8.57095806 7.04721692 8.57095806 7.04721692 11 8 C11.05784708 12.12494151 11.09354407 16.24977944 11.125 20.375 C11.14175781 21.550625 11.15851563 22.72625 11.17578125 23.9375 C11.18544922 25.61972656 11.18544922 25.61972656 11.1953125 27.3359375 C11.21102295 28.89127197 11.21102295 28.89127197 11.22705078 30.47802734 C11 33 11 33 9 35 C6.5 35.25 6.5 35.25 4 35 C1.66524023 32.66524023 1.69468974 31.99180291 1.4375 28.8125 C1.07819758 24.84734114 0.58646302 20.93768026 0 17 C-1.32 16.67 -2.64 16.34 -4 16 C-4 15.34 -4 14.68 -4 14 C-9.72804306 13.66305629 -13.09328365 13.7755864 -18 17 C-20.13671875 16.58984375 -20.13671875 16.58984375 -22 16 C-15.6684887 12.17720073 -10.40360051 10.83956105 -3 12 C0.71726496 14.1241514 2.36536687 16.12531406 4 20 C4.43473339 22.07169246 4.80654223 24.15727751 5.125 26.25 C5.29257813 27.32765625 5.46015625 28.4053125 5.6328125 29.515625 C5.75398438 30.33546875 5.87515625 31.1553125 6 32 C7.485 32.495 7.485 32.495 9 33 C8.91864935 29.45742654 8.80584824 25.9165153 8.6875 22.375 C8.66494141 21.37597656 8.64238281 20.37695312 8.61914062 19.34765625 C8.35620072 12.12876062 7.38427337 7.55061802 2.3125 2.125 C1.549375 1.42375 0.78625 0.7225 0 0 Z " fill="#0B4285" transform="translate(70,22)"/>
<path d="M0 0 C0.66 0 1.32 0 2 0 C1.2350912 5.86966856 0.11897555 11.63866772 -1.0625 17.4375 C-1.24876953 18.35982422 -1.43503906 19.28214844 -1.62695312 20.23242188 C-2.0828737 22.48864423 -2.5405964 24.74448474 -3 27 C-1.68 27 -0.36 27 1 27 C1 24.69 1 22.38 1 20 C1.33 20 1.66 20 2 20 C2.09765625 26.15234375 2.09765625 26.15234375 2 28 C1 29 1 29 -2.0625 29.0625 C-3.031875 29.041875 -4.00125 29.02125 -5 29 C-5 28.34 -5 27.68 -5 27 C-7.31 27 -9.62 27 -12 27 C-11.67 26.34 -11.34 25.68 -11 25 C-10.01 25.33 -9.02 25.66 -8 26 C-8.33 25.34 -8.66 24.68 -9 24 C-10.2315415 17.6215445 -9.40820908 12.94579877 -5.87646484 7.58129883 C-4.0065031 4.93832715 -2.14318274 2.43332481 0 0 Z " fill="#195EB4" transform="translate(45,73)"/>
<path d="M0 0 C0.33 0 0.66 0 1 0 C1.14285714 8.57142857 1.14285714 8.57142857 0 12 C-0.66 12 -1.32 12 -2 12 C-2.66 15.3 -3.32 18.6 -4 22 C-2.35 22.33 -0.7 22.66 1 23 C2 24 2 24 2.09765625 27.81640625 C2.09098089 29.39846682 2.07901875 30.98051159 2.0625 32.5625 C2.05798828 33.36880859 2.05347656 34.17511719 2.04882812 35.00585938 C2.03700518 37.00393756 2.01906914 39.00197783 2 41 C2.66 41 3.32 41 4 41 C4.33 40.01 4.66 39.02 5 38 C5.64453125 39.765625 5.64453125 39.765625 6 42 C5.07421875 43.921875 5.07421875 43.921875 3.6875 45.75 C3.01267578 46.67039062 3.01267578 46.67039062 2.32421875 47.609375 C1.66873047 48.29773438 1.66873047 48.29773438 1 49 C0.34 49 -0.32 49 -1 49 C-1.13605482 40.60995285 -0.75475351 32.35619957 0 24 C-4.39312136 26.41803209 -6.28608769 28.78875676 -9 33 C-9.66 33 -10.32 33 -11 33 C-9.63063628 26.89792309 -7.87564011 21.47614553 -4.9375 15.9375 C-2.17711288 10.69755919 -0.75163418 5.85756296 0 0 Z " fill="#1557A9" transform="translate(59,46)"/>
<path d="M0 0 C4.55555556 0.55555556 4.55555556 0.55555556 6 2 C6.63004492 7.75521805 6.08977821 11.97911041 3 17 C2.34 16.67 1.68 16.34 1 16 C1 13.36 1 10.72 1 8 C-2.54528493 10.83622795 -5.29460311 13.3477142 -8 17 C-8.66 17 -9.32 17 -10 17 C-11.70680947 18.62553283 -13.37660195 20.29115995 -15 22 C-15.66 21.67 -16.32 21.34 -17 21 C-16.41992188 20.29875 -15.83984375 19.5975 -15.2421875 18.875 C-11.10573834 13.85119376 -7.02792972 8.81605184 -3.19140625 3.55859375 C-2 2 -2 2 0 0 Z " fill="#E9F6FF" transform="translate(78,71)"/>
<path d="M0 0 C2.97 0.495 2.97 0.495 6 1 C6.23268915 7.28260706 5.40454548 12.88019467 4 19 C5.98 19 7.96 19 10 19 C10 19.66 10 20.32 10 21 C9.236875 21.350625 8.47375 21.70125 7.6875 22.0625 C4.5631902 24.31490939 4.58287573 24.97826238 3.75 28.5625 C3.08984375 30.96875 3.08984375 30.96875 2 33 C-0.94234083 34.38958493 -3.77048602 34.79011544 -7 35 C-5.88446045 32.02522786 -4.62906213 29.30758264 -3.125 26.5 C0.708041 18.9344097 3.21420843 10.44725939 4 2 C2.68 2.33 1.36 2.66 0 3 C0 2.01 0 1.02 0 0 Z " fill="#1569CC" transform="translate(112,57)"/>
<path d="M0 0 C0.33 0 0.66 0 1 0 C1.66 6.6 2.32 13.2 3 20 C-5.35714286 22.78571429 -5.35714286 22.78571429 -8 23 C-9.8125 21.9375 -9.8125 21.9375 -11 20 C-11.1875 16.8125 -11.1875 16.8125 -11 14 C-10.34 14 -9.68 14 -9 14 C-9 12.02 -9 10.04 -9 8 C-8.34 8 -7.68 8 -7 8 C-6.67 7.34 -6.34 6.68 -6 6 C-6.144375 6.60328125 -6.28875 7.2065625 -6.4375 7.828125 C-6.623125 8.62734375 -6.80875 9.4265625 -7 10.25 C-7.185625 11.03890625 -7.37125 11.8278125 -7.5625 12.640625 C-8.12154828 15.25556002 -8.12154828 15.25556002 -8 19 C-7.01 19 -6.02 19 -5 19 C-4.72285156 17.87980469 -4.44570312 16.75960937 -4.16015625 15.60546875 C-3.79433333 14.13279698 -3.42844447 12.66014158 -3.0625 11.1875 C-2.88009766 10.44951172 -2.69769531 9.71152344 -2.50976562 8.95117188 C-1.7577385 5.92939016 -0.98514427 2.95543282 0 0 Z " fill="#0A4B9A" transform="translate(16,85)"/>
<path d="M0 0 C2.4375 1.4375 2.4375 1.4375 4 4 C4.60320189 6.99538717 4.86965361 9.94989437 5 13 C4.59910156 12.566875 4.19820312 12.13375 3.78515625 11.6875 C0.50301642 8.47234261 -1.78585515 6.57058601 -6.5 6.5625 C-8.00335943 6.66822511 -9.50452495 6.81339415 -11 7 C-11.70253906 7.08121094 -12.40507813 7.16242187 -13.12890625 7.24609375 C-14.75795138 7.46000877 -16.38026622 7.72430063 -18 8 C-18 7.34 -18 6.68 -18 6 C-12.34141389 1.52415115 -7.22332476 -1.24540082 0 0 Z " fill="#39A3FC" transform="translate(70,25)"/>
<path d="M0 0 C0.66 0 1.32 0 2 0 C2 3.63 2 7.26 2 11 C1.34 11 0.68 11 0 11 C0.33 12.65 0.66 14.3 1 16 C0.01 16.33 -0.98 16.66 -2 17 C-2.66 15.02 -3.32 13.04 -4 11 C-6.31 11 -8.62 11 -11 11 C-11 10.34 -11 9.68 -11 9 C-11.99 9 -12.98 9 -14 9 C-13.67 7.68 -13.34 6.36 -13 5 C-12.34 5 -11.68 5 -11 5 C-11 4.34 -11 3.68 -11 3 C-10.01 3 -9.02 3 -8 3 C-8.33 4.65 -8.66 6.3 -9 8 C-7.02 8 -5.04 8 -3 8 C-2.87625 7.236875 -2.7525 6.47375 -2.625 5.6875 C-2 3 -2 3 0 0 Z " fill="#B0DFFF" transform="translate(130,85)"/>
<path d="M0 0 C0.99 0.33 1.98 0.66 3 1 C2.91621094 1.92683594 2.83242187 2.85367188 2.74609375 3.80859375 C2.64425781 5.00613281 2.54242188 6.20367187 2.4375 7.4375 C2.28087891 9.22994141 2.28087891 9.22994141 2.12109375 11.05859375 C2.08113281 12.02925781 2.04117188 12.99992187 2 14 C2.33 14.33 2.66 14.66 3 15 C3.07258946 17.18639453 3.08373783 19.37500389 3.0625 21.5625 C3.05347656 22.76003906 3.04445313 23.95757812 3.03515625 25.19140625 C3.02355469 26.11824219 3.01195313 27.04507813 3 28 C2.01 28 1.02 28 0 28 C-0.33 24.04 -0.66 20.08 -1 16 C-1.66 17.32 -2.32 18.64 -3 20 C-3.66 19.34 -4.32 18.68 -5 18 C-5 16.68 -5 15.36 -5 14 C-4.34 14 -3.68 14 -3 14 C-2.95101562 13.24074219 -2.90203125 12.48148438 -2.8515625 11.69921875 C-2.77679688 10.70535156 -2.70203125 9.71148437 -2.625 8.6875 C-2.55539063 7.70136719 -2.48578125 6.71523437 -2.4140625 5.69921875 C-2 3 -2 3 0 0 Z " fill="#DAF0FE" transform="translate(93,68)"/>
<path d="M0 0 C-0.19251611 8.47070869 -5.43741917 15.15612875 -10 22 C-10.66 22 -11.32 22 -12 22 C-12.94690581 14.89820644 -9.88611991 9.82026675 -6 4 C-2.43551089 0 -2.43551089 0 0 0 Z " fill="#0A60CC" transform="translate(79,79)"/>
<path d="M0 0 C0 3.20395416 -0.74335022 5.09399739 -2 8 C-2.66 8 -3.32 8 -4 8 C-4.16604736 8.82407349 -4.16604736 8.82407349 -4.33544922 9.66479492 C-4.84377727 12.17337533 -5.35932071 14.68042089 -5.875 17.1875 C-6.13603516 18.48397461 -6.13603516 18.48397461 -6.40234375 19.80664062 C-7.72961593 26.22178952 -9.49077671 31.41714476 -13 37 C-14.32 36.67 -15.64 36.34 -17 36 C-16.34 36 -15.68 36 -15 36 C-15.14029419 33.8537974 -15.28738164 31.70803782 -15.4375 29.5625 C-15.51871094 28.36753906 -15.59992188 27.17257813 -15.68359375 25.94140625 C-15.67656114 23.11429756 -15.67656114 23.11429756 -17 22 C-16.91062197 20.47480724 -16.75462854 18.95318071 -16.5625 17.4375 C-16.46066406 16.61121094 -16.35882813 15.78492187 -16.25390625 14.93359375 C-16.17011719 14.29550781 -16.08632812 13.65742187 -16 13 C-15.67 13 -15.34 13 -15 13 C-14.22959149 19.06696699 -13.90293888 24.88514973 -14 31 C-13.01 31 -12.02 31 -11 31 C-10.82597656 29.27330078 -10.82597656 29.27330078 -10.6484375 27.51171875 C-10.09530463 23.10509355 -8.98164954 19.03184158 -7.625 14.8125 C-7.41617188 14.12736328 -7.20734375 13.44222656 -6.9921875 12.73632812 C-5.43052376 7.78947257 -3.6894605 3.6894605 0 0 Z " fill="#2C88E9" transform="translate(111,60)"/>
<path d="M0 0 C0.33 0 0.66 0 1 0 C1 4.62 1 9.24 1 14 C2.2375 13.071875 3.475 12.14375 4.75 11.1875 C7.5 9.125 10.25 7.0625 13 5 C13.39539521 9.48114572 12.15253394 12.10888095 10 16 C9.608125 16.78375 9.21625 17.5675 8.8125 18.375 C8.544375 18.91125 8.27625 19.4475 8 20 C8 17.69 8 15.38 8 13 C7.34 13 6.68 13 6 13 C5.690625 13.61875 5.38125 14.2375 5.0625 14.875 C4.375 16.25 3.6875 17.625 3 19 C1.68 19 0.36 19 -1 19 C-1.02683987 16.02077407 -1.04676037 13.04178705 -1.0625 10.0625 C-1.07087891 9.21236328 -1.07925781 8.36222656 -1.08789062 7.48632812 C-1.09111328 6.67744141 -1.09433594 5.86855469 -1.09765625 5.03515625 C-1.10289307 4.2862915 -1.10812988 3.53742676 -1.11352539 2.76586914 C-1 1 -1 1 0 0 Z " fill="#EDF6FE" transform="translate(57,81)"/>
<path d="M0 0 C0.66 0 1.32 0 2 0 C2 7.92 2 15.84 2 24 C1.01 24 0.02 24 -1 24 C-1.66 20.7 -2.32 17.4 -3 14 C-3.99 15.485 -3.99 15.485 -5 17 C-5.66 17 -6.32 17 -7 17 C-5.71383443 10.56917213 -3.39374748 5.59579736 0 0 Z " fill="#1153A4" transform="translate(54,76)"/>
<path d="M0 0 C0.66 0.33 1.32 0.66 2 1 C2.33 1.99 2.66 2.98 3 4 C3.66 4 4.32 4 5 4 C5.33 2.68 5.66 1.36 6 0 C6.33 0 6.66 0 7 0 C6.67 2.97 6.34 5.94 6 9 C5.34 9 4.68 9 4 9 C3.896875 10.0725 3.79375 11.145 3.6875 12.25 C3.02797801 15.84739269 2.54223809 17.45776191 0 20 C-0.66 20 -1.32 20 -2 20 C-2.0270043 18.54176788 -2.04639787 17.08339325 -2.0625 15.625 C-2.07410156 14.81289062 -2.08570312 14.00078125 -2.09765625 13.1640625 C-2 11 -2 11 -1 9 C-0.77532169 7.46331135 -0.59203195 5.92031946 -0.4375 4.375 C-0.35371094 3.55773437 -0.26992187 2.74046875 -0.18359375 1.8984375 C-0.12300781 1.27195312 -0.06242187 0.64546875 0 0 Z " fill="#2B83E3" transform="translate(84,73)"/>
<path d="M0 0 C0.33 0 0.66 0 1 0 C0.67 2.31 0.34 4.62 0 7 C0.99 7 1.98 7 3 7 C2.39301257 11.12751449 0.96189209 14.3321148 -1 18 C-0.01 18.33 0.98 18.66 2 19 C1 20 1 20 -1.5625 20.0625 C-2.366875 20.041875 -3.17125 20.02125 -4 20 C-4 20.66 -4 21.32 -4 22 C-5.32 22 -6.64 22 -8 22 C-7.42655063 19.13275314 -7.1385485 18.1385485 -5 16 C-4.0570373 13.29684026 -3.18930012 10.61616146 -2.375 7.875 C-2.14554687 7.12089844 -1.91609375 6.36679688 -1.6796875 5.58984375 C-1.11414562 3.72826841 -0.55633178 1.86434849 0 0 Z " fill="#E8F5FE" transform="translate(106,75)"/>
<path d="M0 0 C0.33 0.66 0.66 1.32 1 2 C1.66 2 2.32 2 3 2 C2.566875 3.918125 2.566875 3.918125 2.125 5.875 C1.00617536 10.90171927 -0.0083596 15.94685368 -1 21 C-2.32 21.33 -3.64 21.66 -5 22 C-6.511424 17.29273369 -5.25334916 13.77746805 -3.625 9.3125 C-3.39039063 8.63638672 -3.15578125 7.96027344 -2.9140625 7.26367188 C-2.04488743 4.78207827 -1.17705655 2.35411311 0 0 Z " fill="#B1DDFE" transform="translate(13,83)"/>
<path d="M0 0 C0.33 0 0.66 0 1 0 C1.0871142 4.08319884 1.14043048 8.16615864 1.1875 12.25 C1.22520508 13.98830078 1.22520508 13.98830078 1.26367188 15.76171875 C1.27817383 17.43427734 1.27817383 17.43427734 1.29296875 19.140625 C1.31653442 20.68024902 1.31653442 20.68024902 1.34057617 22.25097656 C0.95512763 25.36219561 0.08024524 26.7062117 -2 29 C-4.31 28.67 -6.62 28.34 -9 28 C-8.67 26.68 -8.34 25.36 -8 24 C-7.67 24.66 -7.34 25.32 -7 26 C-6.01 26 -5.02 26 -4 26 C-2.52309213 23.04618426 -2.72376388 20.2253084 -2.5625 16.9375 C-2.23866786 11.10082784 -1.48852366 5.65638992 0 0 Z " fill="#0B4997" transform="translate(136,76)"/>
<path d="M0 0 C0.21917317 2.70313576 0.32851983 4.43958382 -1.0625 6.8125 C-3.99268751 8.60842137 -6.6472953 8.18977574 -10 8 C-7.53721199 5.53721199 -5.29323018 5.00228745 -2 4 C-2 3.01 -2 2.02 -2 1 C-4.6564858 1.95928654 -6.72620524 2.76271121 -8.875 4.625 C-12.03644556 6.67064125 -14.32184333 6.45976958 -18 6 C-19.32 4.68 -20.64 3.36 -22 2 C-16.06 2.99 -16.06 2.99 -10 4 C-10 2.68 -10 1.36 -10 0 C-6.30581799 -1.231394 -3.7943739 -0.64432764 0 0 Z " fill="#1958A7" transform="translate(47,107)"/>
<path d="M0 0 C2.97 0.495 2.97 0.495 6 1 C6.23268915 7.28260706 5.40454548 12.88019467 4 19 C5.98 19 7.96 19 10 19 C10 19.66 10 20.32 10 21 C8.35666496 22.03789581 6.68756133 23.03567924 5 24 C4.34 24.66 3.68 25.32 3 26 C3 25.34 3 24.68 3 24 C2.34 24 1.68 24 1 24 C1.48827713 16.52165033 2.33405548 9.31074682 4 2 C2.68 2.33 1.36 2.66 0 3 C0 2.01 0 1.02 0 0 Z " fill="#185DB1" transform="translate(112,57)"/>
<path d="M0 0 C3.70073894 2.11470796 5.39554888 4.1220075 7 8 C7.4140625 10.796875 7.4140625 10.796875 7.625 13.75 C7.69976562 14.73484375 7.77453125 15.7196875 7.8515625 16.734375 C7.90054688 17.48203125 7.94953125 18.2296875 8 19 C7.34 18.67 6.68 18.34 6 18 C5.40234375 15.8203125 5.40234375 15.8203125 4.9375 13.125 C4.43729298 10.2891156 3.91310717 7.73932151 3 5 C0.98491642 4.26676204 0.98491642 4.26676204 -1 4 C-1 3.34 -1 2.68 -1 2 C-6.72804306 1.66305629 -10.09328365 1.7755864 -15 5 C-17.13671875 4.58984375 -17.13671875 4.58984375 -19 4 C-12.6684887 0.17720073 -7.40360051 -1.16043895 0 0 Z " fill="#0A4FA5" transform="translate(67,34)"/>
<path d="M0 0 C2.31 0.33 4.62 0.66 7 1 C7 3.31 7 5.62 7 8 C6.67 8 6.34 8 6 8 C5.67 6.35 5.34 4.7 5 3 C4.34 3 3.68 3 3 3 C2.74605469 3.56589844 2.49210937 4.13179688 2.23046875 4.71484375 C1.88628906 5.44832031 1.54210937 6.18179688 1.1875 6.9375 C0.68283203 8.03384766 0.68283203 8.03384766 0.16796875 9.15234375 C-1 11 -1 11 -4 12 C-4.103125 11.401875 -4.20625 10.80375 -4.3125 10.1875 C-5.08876455 7.71756736 -6.07088921 6.67748765 -8 5 C-7.236875 5.103125 -6.47375 5.20625 -5.6875 5.3125 C-4.800625 5.209375 -3.91375 5.10625 -3 5 C-1.1375562 2.59141286 -1.1375562 2.59141286 0 0 Z " fill="#0A4996" transform="translate(90,66)"/>
<path d="M0 0 C1.32 0.33 2.64 0.66 4 1 C3.01 1 2.02 1 1 1 C0.81824219 1.61746094 0.63648438 2.23492187 0.44921875 2.87109375 C-1.25720447 8.62042737 -3.06654726 14.32305366 -5 20 C-5.66 20 -6.32 20 -7 20 C-7.2475 20.598125 -7.495 21.19625 -7.75 21.8125 C-9.16370012 24.28647521 -10.65055383 25.43370255 -13 27 C-13 25.68 -13 24.36 -13 23 C-12.01 23 -11.02 23 -10 23 C-10 21.68 -10 20.36 -10 19 C-9.01 19 -8.02 19 -7 19 C-6.80664062 18.27554688 -6.61328125 17.55109375 -6.4140625 16.8046875 C-5.07139714 11.81954385 -3.71250514 6.87405309 -2 2 C-1.34 2 -0.68 2 0 2 C0 1.34 0 0.68 0 0 Z " fill="#095DC4" transform="translate(55,44)"/>
<path d="M0 0 C0.99 0.66 1.98 1.32 3 2 C1.55575365 5.23861303 -0.25772247 7.61969163 -2.625 10.25 C-3.25664063 10.95640625 -3.88828125 11.6628125 -4.5390625 12.390625 C-5.26222656 13.18726562 -5.26222656 13.18726562 -6 14 C-7.65 13.67 -9.3 13.34 -11 13 C-11.33 10.03 -11.66 7.06 -12 4 C-11.34 4 -10.68 4 -10 4 C-8 7 -8 7 -8 11 C-7.34 11 -6.68 11 -6 11 C-5.7525 10.484375 -5.505 9.96875 -5.25 9.4375 C-3.60418384 6.22815849 -1.8023904 3.12414336 0 0 Z " fill="#B9DFFD" transform="translate(75,90)"/>
<path d="M0 0 C-0.8971875 0.39445312 -0.8971875 0.39445312 -1.8125 0.796875 C-6.41048617 3.32576739 -9.34802845 8.0127288 -12.1875 12.3125 C-14 15 -14 15 -17 17 C-17 15.35 -17 13.7 -17 12 C-16.01 12 -15.02 12 -14 12 C-14 10.35 -14 8.7 -14 7 C-13.34 7 -12.68 7 -12 7 C-11.731875 6.401875 -11.46375 5.80375 -11.1875 5.1875 C-8.27975075 -0.16888021 -6.09410107 -0.34494912 0 0 Z " fill="#0751AE" transform="translate(82,70)"/>
<path d="M0 0 C0.33 0 0.66 0 1 0 C1.0580476 3.27075883 1.09361165 6.54138524 1.125 9.8125 C1.14175781 10.74126953 1.15851563 11.67003906 1.17578125 12.62695312 C1.18222656 13.51962891 1.18867188 14.41230469 1.1953125 15.33203125 C1.20578613 16.15421143 1.21625977 16.9763916 1.22705078 17.82348633 C1 20 1 20 -1 23 C-1.99 23 -2.98 23 -4 23 C-4 22.34 -4 21.68 -4 21 C-3.34 21 -2.68 21 -2 21 C-2.33 19.35 -2.66 17.7 -3 16 C-2.34 16 -1.68 16 -1 16 C-1 12.37 -1 8.74 -1 5 C-1.66 5 -2.32 5 -3 5 C-1.125 1.125 -1.125 1.125 0 0 Z " fill="#EBF6FF" transform="translate(133,80)"/>
<path d="M0 0 C0.66 0 1.32 0 2 0 C1.2350912 5.86966856 0.11897555 11.63866772 -1.0625 17.4375 C-1.24876953 18.35982422 -1.43503906 19.28214844 -1.62695312 20.23242188 C-2.0828737 22.48864423 -2.5405964 24.74448474 -3 27 C-3.33 27 -3.66 27 -4 27 C-3.50873071 20.63440427 -3.00344253 14.30735307 -2 8 C-3.98 8.99 -3.98 8.99 -6 10 C-4.34643078 6.41726669 -2.32019297 3.19026533 0 0 Z " fill="#3599F6" transform="translate(45,73)"/>
<path d="M0 0 C0.556875 0.7425 1.11375 1.485 1.6875 2.25 C5.42388911 6.69327354 7.96875248 9.09051752 13.8125 9.75 C15.2072304 9.85011115 16.60300686 9.93912884 18 10 C18 10.99 18 11.98 18 13 C9.2404908 13.44539877 9.2404908 13.44539877 5 10 C5 9.34 5 8.68 5 8 C3.68 8 2.36 8 1 8 C0.67 5.36 0.34 2.72 0 0 Z " fill="#144E95" transform="translate(19,105)"/>
<path d="M0 0 C1.32 0 2.64 0 4 0 C4 0.66 4 1.32 4 2 C3.01 2.33 2.02 2.66 1 3 C-0.61674348 5.28068613 -1.99106615 7.65406241 -3.40234375 10.06640625 C-4.19318359 11.02353516 -4.19318359 11.02353516 -5 12 C-6.32 12 -7.64 12 -9 12 C-9.33 9.36 -9.66 6.72 -10 4 C-9.01 4 -8.02 4 -7 4 C-7 4.99 -7 5.98 -7 7 C-6.34 7 -5.68 7 -5 7 C-5 6.34 -5 5.68 -5 5 C-4.01 4.67 -3.02 4.34 -2 4 C-0.79117904 1.99983534 -0.79117904 1.99983534 0 0 Z " fill="#0F54A9" transform="translate(132,74)"/>
<path d="M0 0 C0 3.92963613 -1.62467248 6.73449148 -3.3125 10.1875 C-5.80312621 15.38812753 -8.10769636 20.54571304 -10 26 C-10.33 26 -10.66 26 -11 26 C-10.85816304 24.24967156 -10.71136571 22.49974466 -10.5625 20.75 C-10.48128906 19.77546875 -10.40007813 18.8009375 -10.31640625 17.796875 C-9.81023297 13.32255319 -9.34346876 11.06484637 -6 8 C-5.67 7.34 -5.34 6.68 -5 6 C-4.34 6 -3.68 6 -3 6 C-2.87625 5.195625 -2.7525 4.39125 -2.625 3.5625 C-2.41875 2.716875 -2.2125 1.87125 -2 1 C-1.34 0.67 -0.68 0.34 0 0 Z " fill="#0D60C3" transform="translate(21,65)"/>
<path d="M0 0 C1.32 0 2.64 0 4 0 C4.66 1.32 5.32 2.64 6 4 C-0.7831364 5.42002108 -7.06697907 6.22731216 -14 6 C-14.33 5.34 -14.66 4.68 -15 4 C-12.36 4 -9.72 4 -7 4 C-7 3.34 -7 2.68 -7 2 C-4.69 2 -2.38 2 0 2 C0 1.34 0 0.68 0 0 Z " fill="#0F4FA0" transform="translate(109,93)"/>
<path d="M0 0 C-0.33 4.29 -0.66 8.58 -1 13 C-2.65 13 -4.3 13 -6 13 C-5.19444444 0 -5.19444444 0 0 0 Z " fill="#044BA4" transform="translate(43,81)"/>
<path d="M0 0 C1.41842773 2.83685546 0.3416784 4.58736903 -0.59179688 7.47265625 C-0.82962891 8.18292969 -1.06746094 8.89320312 -1.3125 9.625 C-3.09780029 15.0470231 -4.67086889 20.44635358 -6 26 C-6.99 26 -7.98 26 -9 26 C-9 23.36 -9 20.72 -9 18 C-8.01 17.67 -7.02 17.34 -6 17 C-5.16966608 14.49717854 -4.51218148 12.12373476 -3.9375 9.5625 C-2.24592391 2.24592391 -2.24592391 2.24592391 0 0 Z " fill="#094288" transform="translate(106,65)"/>
<path d="M0 0 C0.33 0 0.66 0 1 0 C1.7157752 6.97880816 -1.21093068 12.56487787 -5.25 18.0625 C-5.8275 18.701875 -6.405 19.34125 -7 20 C-6.24670034 13.03197815 -3.88981241 5.83471861 0 0 Z " fill="#1B5EB0" transform="translate(29,60)"/>
<path d="M0 0 C0.33 0 0.66 0 1 0 C1.66 6.6 2.32 13.2 3 20 C2.34 20.33 1.68 20.66 1 21 C0.67 18.69 0.34 16.38 0 14 C-0.99 14.33 -1.98 14.66 -3 15 C-2.5547115 9.72684667 -1.91626837 4.98229776 0 0 Z " fill="#1266CE" transform="translate(16,85)"/>
<path d="M0 0 C1.98 0 3.96 0 6 0 C10.16119272 6.81518178 10.50652223 12.11687448 10.25 20 C10.23195313 21.06089844 10.21390625 22.12179688 10.1953125 23.21484375 C10.14853748 25.8108572 10.08301142 28.40493528 10 31 C9.67 31 9.34 31 9 31 C8.98541748 30.42556152 8.97083496 29.85112305 8.95581055 29.25927734 C8.88086275 26.63054304 8.78436006 24.00301448 8.6875 21.375 C8.66494141 20.47136719 8.64238281 19.56773438 8.61914062 18.63671875 C8.34165477 11.72479839 7.1610444 7.31181494 2.3125 2.125 C1.549375 1.42375 0.78625 0.7225 0 0 Z " fill="#0B52A9" transform="translate(70,22)"/>
<path d="M0 0 C0 4.95 0 9.9 0 15 C-0.99 15 -1.98 15 -3 15 C-3.95261487 10.23692563 -4.08333357 5.8333472 -4 1 C-1 0 -1 0 0 0 Z " fill="#E8F5FE" transform="translate(78,39)"/>
<path d="M0 0 C1.27875 -0.061875 2.5575 -0.12375 3.875 -0.1875 C4.95394531 -0.23970703 4.95394531 -0.23970703 6.0546875 -0.29296875 C6.69664063 -0.19628906 7.33859375 -0.09960938 8 0 C10 3 10 3 10 6 C6.37 5.67 2.74 5.34 -1 5 C-0.67 3.35 -0.34 1.7 0 0 Z " fill="#0A51AA" transform="translate(62,25)"/>
<path d="M0 0 C0.33 0 0.66 0 1 0 C1 5.61 1 11.22 1 17 C2.32 17.33 3.64 17.66 5 18 C3.7260411 20.03833424 2.38938077 22.03852126 1 24 C0.34 24 -0.32 24 -1 24 C-1.12867289 15.93649887 -0.79681084 8.02502344 0 0 Z " fill="#2B82DF" transform="translate(59,71)"/>
<path d="M0 0 C1.670625 0.061875 1.670625 0.061875 3.375 0.125 C4.53138891 2.43777781 4.57368928 3.92591221 4.625 6.5 C4.66367187 7.65628906 4.66367187 7.65628906 4.703125 8.8359375 C4.375 11.125 4.375 11.125 1.375 15.125 C1.375 10.505 1.375 5.885 1.375 1.125 C0.055 1.125 -1.265 1.125 -2.625 1.125 C-2.625 1.785 -2.625 2.445 -2.625 3.125 C-3.285 3.125 -3.945 3.125 -4.625 3.125 C-4.955 5.105 -5.285 7.085 -5.625 9.125 C-5.955 9.125 -6.285 9.125 -6.625 9.125 C-5.63269231 0.19423077 -5.63269231 0.19423077 0 0 Z " fill="#0B4082" transform="translate(57.625,42.875)"/>
<path d="M0 0 C1.25955231 3.77865693 0.48087189 5.03411786 -0.9375 8.6875 C-1.31777344 9.68136719 -1.69804688 10.67523438 -2.08984375 11.69921875 C-2.39019531 12.45847656 -2.69054687 13.21773437 -3 14 C-3.66 14 -4.32 14 -5 14 C-5 12.35 -5 10.7 -5 9 C-5.66 9.99 -6.32 10.98 -7 12 C-6.67 9.69 -6.34 7.38 -6 5 C-5.01 4.67 -4.02 4.34 -3 4 C-2.67 3.34 -2.34 2.68 -2 2 C-1.34 1.34 -0.68 0.68 0 0 Z " fill="#88CEFE" transform="translate(111,68)"/>
<path d="M0 0 C1.125 3.75 1.125 3.75 0 6 C1.65 6 3.3 6 5 6 C4.59007812 6.47050781 4.18015625 6.94101563 3.7578125 7.42578125 C3.21898437 8.04839844 2.68015625 8.67101562 2.125 9.3125 C1.32449219 10.23482422 1.32449219 10.23482422 0.5078125 11.17578125 C-1.1640447 13.13498212 -1.1640447 13.13498212 -3 16 C-3.66 16 -4.32 16 -5 16 C-4.54548816 14.26982492 -4.08621143 12.54090123 -3.625 10.8125 C-3.36976562 9.84957031 -3.11453125 8.88664062 -2.8515625 7.89453125 C-2.05233704 5.17789793 -1.0968638 2.60862825 0 0 Z " fill="#1475E0" transform="translate(53,63)"/>
<path d="M0 0 C0.33 0 0.66 0 1 0 C1.03738281 0.845625 1.07476563 1.69125 1.11328125 2.5625 C1.55712639 10.22100444 2.56019972 16.12039945 6 23 C5.01 23.33 4.02 23.66 3 24 C-0.86299814 18.36271783 -1.47534557 14.78058162 -0.75 8.0625 C-0.68425781 7.28326172 -0.61851563 6.50402344 -0.55078125 5.70117188 C-0.38739911 3.79893701 -0.19653189 1.89909621 0 0 Z " fill="#B7DEFE" transform="translate(19,86)"/>
<path d="M0 0 C-0.49730652 4.97306516 -1.55302334 8.63799813 -4 13 C-5.04449911 9.86650268 -4.93423645 9.01031744 -4 6 C-4.66 6 -5.32 6 -6 6 C-6 6.99 -6 7.98 -6 9 C-6.66 9 -7.32 9 -8 9 C-6.68994234 5.06982701 -4.75047804 0 0 0 Z " fill="#117CE9" transform="translate(79,79)"/>
<path d="M0 0 C0.99386719 0.00902344 1.98773438 0.01804687 3.01171875 0.02734375 C4.15060547 0.04474609 4.15060547 0.04474609 5.3125 0.0625 C5.3125 0.7225 5.3125 1.3825 5.3125 2.0625 C6.3025 2.3925 7.2925 2.7225 8.3125 3.0625 C7.34828125 3.03929687 6.3840625 3.01609375 5.390625 2.9921875 C4.12734375 2.97414063 2.8640625 2.95609375 1.5625 2.9375 C-0.31695312 2.90269531 -0.31695312 2.90269531 -2.234375 2.8671875 C-5.51293874 3.05262663 -6.89645775 3.56640078 -9.6875 5.0625 C-10.6775 4.7325 -11.6675 4.4025 -12.6875 4.0625 C-8.41027069 0.67021469 -5.42406114 -0.06381248 0 0 Z " fill="#0A4183" transform="translate(65.6875,18.9375)"/>
<path d="M0 0 C0.66 0.804375 1.32 1.60875 2 2.4375 C5.87979228 5.75148924 8.00014825 5.74577025 13 6 C13 6.99 13 7.98 13 9 C11.3745692 8.85904936 9.74965949 8.71207913 8.125 8.5625 C7.22007813 8.48128906 6.31515625 8.40007812 5.3828125 8.31640625 C3 8 3 8 1 7 C0.59270772 4.67843403 0.25561323 2.3431213 0 0 Z " fill="#0A4288" transform="translate(24,102)"/>
<path d="M0 0 C0.99 0 1.98 0 3 0 C2.67 1.65 2.34 3.3 2 5 C3.32 5.33 4.64 5.66 6 6 C6 6.66 6 7.32 6 8 C4.02 8 2.04 8 0 8 C0 7.34 0 6.68 0 6 C-0.99 6 -1.98 6 -3 6 C-2.67 4.68 -2.34 3.36 -2 2 C-1.34 2 -0.68 2 0 2 C0 1.34 0 0.68 0 0 Z " fill="#209BFB" transform="translate(119,88)"/>
<path d="M0 0 C0.33 0 0.66 0 1 0 C1.02696009 2.7708983 1.04681952 5.5415345 1.0625 8.3125 C1.07087891 9.09818359 1.07925781 9.88386719 1.08789062 10.69335938 C1.09111328 11.45068359 1.09433594 12.20800781 1.09765625 12.98828125 C1.10289307 13.68477783 1.10812988 14.38127441 1.11352539 15.09887695 C1 17 1 17 0 20 C-2.31 19.67 -4.62 19.34 -7 19 C-6.67 17.68 -6.34 16.36 -6 15 C-5.67 15.66 -5.34 16.32 -5 17 C-4.01 17 -3.02 17 -2 17 C-0.47893366 13.95786733 -0.62570662 10.71952428 -0.4375 7.375 C-0.37272461 6.31539063 -0.37272461 6.31539063 -0.30664062 5.234375 C-0.20055249 3.48981463 -0.09977111 1.74493303 0 0 Z " fill="#3479CD" transform="translate(134,85)"/>
<path d="M0 0 C0 3.20395416 -0.74335022 5.09399739 -2 8 C-2.66 8 -3.32 8 -4 8 C-4.19335938 8.83144531 -4.38671875 9.66289063 -4.5859375 10.51953125 C-4.97652344 12.14955078 -4.97652344 12.14955078 -5.375 13.8125 C-5.63023438 14.89144531 -5.88546875 15.97039062 -6.1484375 17.08203125 C-7 20 -7 20 -9 23 C-8.56615696 15.48005391 -6.47542107 6.87517608 -1.3359375 1.14453125 C-0.89507812 0.76683594 -0.45421875 0.38914063 0 0 Z " fill="#0F6AD4" transform="translate(111,60)"/>
<path d="M0 0 C0.66 0.33 1.32 0.66 2 1 C-0.05505102 3.56881377 -2.11079706 6.1361221 -4.1875 8.6875 C-6.01090035 10.85532267 -6.01090035 10.85532267 -7 13 C-8.32 12.67 -9.64 12.34 -11 12 C-3.70159453 3.55353075 -3.70159453 3.55353075 0 0 Z " fill="#1659AC" transform="translate(46,39)"/>
<path d="M0 0 C1.32 0 2.64 0 4 0 C4 2.64 4 5.28 4 8 C3.34 7.67 2.68 7.34 2 7 C1.67 12.61 1.34 18.22 1 24 C0.67 24 0.34 24 0 24 C0 16.08 0 8.16 0 0 Z " fill="#BEE3FE" transform="translate(55,75)"/>
<path d="M0 0 C2.04219706 1.69179328 2.91793306 2.63727666 3.51171875 5.26171875 C3.59873047 6.46248047 3.59873047 6.46248047 3.6875 7.6875 C3.78611328 8.89986328 3.78611328 8.89986328 3.88671875 10.13671875 C3.92410156 10.75160156 3.96148437 11.36648437 4 12 C2.87411986 11.04270084 1.7493285 10.08412105 0.625 9.125 C-0.00148438 8.59132813 -0.62796875 8.05765625 -1.2734375 7.5078125 C-2.55836651 6.38567993 -3.79371975 5.20628025 -5 4 C-2.03 4.495 -2.03 4.495 1 5 C0.67 3.35 0.34 1.7 0 0 Z " fill="#1681EB" transform="translate(71,26)"/>
<path d="M0 0 C0.66 0 1.32 0 2 0 C1.67 7.26 1.34 14.52 1 22 C0.67 22 0.34 22 0 22 C0 16.72 0 11.44 0 6 C-0.99 6.33 -1.98 6.66 -3 7 C-1.125 2.25 -1.125 2.25 0 0 Z " fill="#2999F9" transform="translate(54,76)"/>
<path d="M0 0 C0.59425781 0.22042969 1.18851563 0.44085938 1.80078125 0.66796875 C1.80078125 1.32796875 1.80078125 1.98796875 1.80078125 2.66796875 C-0.09765625 4.140625 -0.09765625 4.140625 -2.57421875 5.73046875 C-3.38632812 6.25769531 -4.1984375 6.78492188 -5.03515625 7.328125 C-7.19921875 8.66796875 -7.19921875 8.66796875 -9.19921875 9.66796875 C-8.6159748 6.44255946 -7.67707077 4.69220765 -5.38671875 2.35546875 C-4.88527344 1.82308594 -4.38382813 1.29070313 -3.8671875 0.7421875 C-2.19921875 -0.33203125 -2.19921875 -0.33203125 0 0 Z " fill="#EBF5FE" transform="translate(51.19921875,33.33203125)"/>
<path d="M0 0 C1 3 1 3 -0.1875 6.125 C-2 9 -2 9 -4.1875 9.875 C-5.0846875 9.936875 -5.0846875 9.936875 -6 10 C-5.58578031 5.16743695 -3.53586014 3.17320782 0 0 Z " fill="#E9F6FF" transform="translate(28,58)"/>
<path d="M0 0 C0.33 0.66 0.66 1.32 1 2 C-0.25 5.0625 -0.25 5.0625 -2 8 C-2.99 8.33 -3.98 8.66 -5 9 C-5.103125 8.401875 -5.20625 7.80375 -5.3125 7.1875 C-6.08876455 4.71756736 -7.07088921 3.67748765 -9 2 C-7.68 2 -6.36 2 -5 2 C-5 2.66 -5 3.32 -5 4 C-4.01 4 -3.02 4 -2 4 C-2 3.01 -2 2.02 -2 1 C-1.34 0.67 -0.68 0.34 0 0 Z " fill="#0A59B9" transform="translate(91,69)"/>
<path d="M0 0 C0.94875 0.04125 1.8975 0.0825 2.875 0.125 C4.25726016 2.88952033 3.97025387 5.1711363 3.9375 8.25 C3.92847656 9.34570312 3.91945312 10.44140625 3.91015625 11.5703125 C3.89855469 12.41335937 3.88695312 13.25640625 3.875 14.125 C3.545 14.125 3.215 14.125 2.875 14.125 C2.545 9.835 2.215 5.545 1.875 1.125 C0.555 1.125 -0.765 1.125 -2.125 1.125 C-2.785 2.775 -3.445 4.425 -4.125 6.125 C-4.75 4.25 -4.75 4.25 -5.125 2.125 C-3.125 0.125 -3.125 0.125 0 0 Z " fill="#0B3F7F" transform="translate(134.125,72.875)"/>
<path d="M0 0 C1.24716797 0.10828125 1.24716797 0.10828125 2.51953125 0.21875 C3.60621094 0.3115625 4.69289063 0.404375 5.8125 0.5 C6.89144531 0.5928125 7.97039063 0.685625 9.08203125 0.78125 C12.01090811 1.03737838 12.01090811 1.03737838 15 1 C12.45687431 3.44140066 11.06051786 3.99243527 7.5 4.4375 C3.42318015 3.92789752 2.66196393 2.9480083 0 0 Z " fill="#2284ED" transform="translate(25,109)"/>
<path d="M0 0 C0.93065133 2.60582371 1.14917407 3.64198224 0.0625 6.25 C-0.4634375 7.11625 -0.4634375 7.11625 -1 8 C-2.32 7.67 -3.64 7.34 -5 7 C-4.67 5.02 -4.34 3.04 -4 1 C-2.68 1.66 -1.36 2.32 0 3 C0 2.01 0 1.02 0 0 Z " fill="#98C8F9" transform="translate(12,97)"/>
<path d="M0 0 C0.33 0 0.66 0 1 0 C1.33 2.64 1.66 5.28 2 8 C2.33 5.69 2.66 3.38 3 1 C3.33 1 3.66 1 4 1 C4.33 4.63 4.66 8.26 5 12 C3.68 11.67 2.36 11.34 1 11 C-0.20272819 8.59454362 -0.10071472 7.05003047 -0.0625 4.375 C-0.05347656 3.55773437 -0.04445313 2.74046875 -0.03515625 1.8984375 C-0.02355469 1.27195312 -0.01195313 0.64546875 0 0 Z " fill="#97CBFC" transform="translate(32,87)"/>
<path d="M0 0 C0.33 0 0.66 0 1 0 C1 3.3 1 6.6 1 10 C-0.65 10 -2.3 10 -4 10 C-3.52449439 8.51965236 -3.04448784 7.04074979 -2.5625 5.5625 C-2.29566406 4.73878906 -2.02882813 3.91507812 -1.75390625 3.06640625 C-1 1 -1 1 0 0 Z " fill="#2AA3FE" transform="translate(92,83)"/>
<path d="M0 0 C0.66 0.33 1.32 0.66 2 1 C1.67 2.32 1.34 3.64 1 5 C0.34 5 -0.32 5 -1 5 C-2.70680947 6.62553283 -4.37660195 8.29115995 -6 10 C-6.66 9.67 -7.32 9.34 -8 9 C-5.36 6.03 -2.72 3.06 0 0 Z " fill="#C3E5FF" transform="translate(69,83)"/>
<path d="M0 0 C0.99 0.33 1.98 0.66 3 1 C1.625 3 1.625 3 0 5 C-0.66 5 -1.32 5 -2 5 C-2 5.66 -2 6.32 -2 7 C-3.98 7.99 -3.98 7.99 -6 9 C-4.68775452 5.06326356 -3.08089673 2.77280706 0 0 Z " fill="#094795" transform="translate(36,75)"/>
<path d="M0 0 C0.66 0.66 1.32 1.32 2 2 C1.68134222 5.29279709 0.45484649 6.86535088 -2 9 C-2 8.34 -2 7.68 -2 7 C-2.99 7.33 -3.98 7.66 -5 8 C-3.62845496 5.04590299 -2.01136276 2.55991624 0 0 Z " fill="#B6DCFE" transform="translate(43,70)"/>
<path d="M0 0 C0.33 1.32 0.66 2.64 1 4 C1.99 4 2.98 4 4 4 C4 2.68 4 1.36 4 0 C4.66 0 5.32 0 6 0 C4.94124926 3.40312738 3.99097846 6.01353231 2 9 C1.34 9 0.68 9 0 9 C0 6.03 0 3.06 0 0 Z " fill="#2496FA" transform="translate(82,84)"/>
<path d="M0 0 C0.928125 0.0825 1.85625 0.165 2.8125 0.25 C3.1425 0.91 3.4725 1.57 3.8125 2.25 C0.8425 1.755 0.8425 1.755 -2.1875 1.25 C-2.27 1.848125 -2.3525 2.44625 -2.4375 3.0625 C-3.39205872 5.8466296 -4.75882271 6.68311142 -7.1875 8.25 C-6.3387933 3.49724246 -5.13250498 0.40254941 0 0 Z " fill="#0A4184" transform="translate(114.1875,55.75)"/>
<path d="M0 0 C3.7395549 2.71967629 4.26900833 6.68126758 5 11 C5.125 14 5.125 14 5 16 C4.34 15.67 3.68 15.34 3 15 C2.40234375 12.890625 2.40234375 12.890625 1.9375 10.25 C1.78152344 9.38890625 1.62554687 8.5278125 1.46484375 7.640625 C1.31144531 6.76921875 1.15804687 5.8978125 1 5 C0.67065379 3.33254087 0.33851662 1.66562162 0 0 Z " fill="#1974DD" transform="translate(70,37)"/>
<path d="M0 0 C0.556875 0.721875 1.11375 1.44375 1.6875 2.1875 C3.97909334 4.97457299 6.41459857 7.48641528 9 10 C7.68 10 6.36 10 5 10 C5 9.34 5 8.68 5 8 C3.68 8 2.36 8 1 8 C0.67 5.36 0.34 2.72 0 0 Z " fill="#1861BB" transform="translate(19,105)"/>
<path d="M0 0 C0.33 0 0.66 0 1 0 C1 4.29 1 8.58 1 13 C0.67 12.01 0.34 11.02 0 10 C-0.99 10.33 -1.98 10.66 -3 11 C-2.01 7.37 -1.02 3.74 0 0 Z " fill="#1496FE" transform="translate(16,85)"/>
<path d="M0 0 C0 2.64 0 5.28 0 8 C-1.32 8 -2.64 8 -4 8 C-3.74438677 5.6568787 -3.40729228 3.32156597 -3 1 C-1 0 -1 0 0 0 Z " fill="#0A4184" transform="translate(41,86)"/>
<path d="M0 0 C-3.41016497 2.86453858 -6.90694544 4.34703566 -11 6 C-10.75 4.125 -10.75 4.125 -10 2 C-6.82026536 -0.35535899 -3.84875379 -0.17494335 0 0 Z " fill="#E5F4FF" transform="translate(66,23)"/>
<path d="M0 0 C0.66 0 1.32 0 2 0 C2.33 0.99 2.66 1.98 3 3 C4.32 3.99 5.64 4.98 7 6 C3.37 6 -0.26 6 -4 6 C-2.7260411 3.96166576 -1.38938077 1.96147874 0 0 Z " fill="#2E83DE" transform="translate(78,92)"/>
<path d="M0 0 C0.33 0 0.66 0 1 0 C1 2.97 1 5.94 1 9 C0.34 9 -0.32 9 -1 9 C-3 6 -3 6 -2.75 3.9375 C-2 2 -2 2 0 0 Z " fill="#1395FF" transform="translate(130,86)"/>
<path d="M0 0 C0.99 0 1.98 0 3 0 C3 0.66 3 1.32 3 2 C3.66 2 4.32 2 5 2 C5.33 3.32 5.66 4.64 6 6 C3 7 3 7 0 6 C0 4.02 0 2.04 0 0 Z " fill="#D9F0FF" transform="translate(121,87)"/>
<path d="M0 0 C0.556875 0.268125 1.11375 0.53625 1.6875 0.8125 C0.6975 0.8125 -0.2925 0.8125 -1.3125 0.8125 C-1.51875 1.369375 -1.725 1.92625 -1.9375 2.5 C-3.86250774 5.73751302 -6.35100902 7.49481141 -9.3125 9.8125 C-7.92024522 5.38259844 -5.31574828 -0.43100662 0 0 Z " fill="#9FD1FE" transform="translate(80.3125,71.1875)"/>
<path d="M0 0 C0.33 1.32 0.66 2.64 1 4 C0.01 4 -0.98 4 -2 4 C-2.33 3.34 -2.66 2.68 -3 2 C-5.64 2 -8.28 2 -11 2 C-6.56704896 -0.95530069 -5.21113081 -1.01956907 0 0 Z " fill="#115AB3" transform="translate(126,96)"/>
<path d="M0 0 C2.0625 0.4375 2.0625 0.4375 4 1 C4 3.31 4 5.62 4 8 C3.34 8 2.68 8 2 8 C2.33 6.02 2.66 4.04 3 2 C1.02 2.99 -0.96 3.98 -3 5 C-1.125 1.125 -1.125 1.125 0 0 Z " fill="#81C1FC" transform="translate(119,78)"/>
<path d="M0 0 C1.32 0 2.64 0 4 0 C4.66 1.32 5.32 2.64 6 4 C1.71 3.67 -2.58 3.34 -7 3 C-7 2.67 -7 2.34 -7 2 C-4.69 2 -2.38 2 0 2 C0 1.34 0 0.68 0 0 Z " fill="#2376D4" transform="translate(109,93)"/>
<path d="M0 0 C0.66 0.33 1.32 0.66 2 1 C0.02 3.31 -1.96 5.62 -4 8 C-4.33 7.34 -4.66 6.68 -5 6 C-3.35 4.02 -1.7 2.04 0 0 Z M-7 8 C-6.34 8.33 -5.68 8.66 -5 9 C-5.99 9.66 -6.98 10.32 -8 11 C-7.67 10.01 -7.34 9.02 -7 8 Z " fill="#0C3D7A" transform="translate(48,39)"/>
<path d="M0 0 C0.90105469 0.00902344 1.80210938 0.01804687 2.73046875 0.02734375 C3.41753906 0.03894531 4.10460937 0.05054687 4.8125 0.0625 C4.8125 0.3925 4.8125 0.7225 4.8125 1.0625 C4.14863281 1.18367188 3.48476562 1.30484375 2.80078125 1.4296875 C-1.72174459 2.28797708 -5.98688524 3.10221311 -10.1875 5.0625 C-9.375 3.125 -9.375 3.125 -8.1875 1.0625 C-5.17259443 0.05753148 -3.14568308 -0.04085303 0 0 Z " fill="#1068D2" transform="translate(65.1875,20.9375)"/>
<path d="M0 0 C0.103125 0.639375 0.20625 1.27875 0.3125 1.9375 C0.539375 2.618125 0.76625 3.29875 1 4 C1.99 4.33 2.98 4.66 4 5 C2.625 7 2.625 7 1 9 C0.34 9 -0.32 9 -1 9 C-1.125 2.25 -1.125 2.25 0 0 Z " fill="#329BFC" transform="translate(68,92)"/>
<path d="M0 0 C1.32 0 2.64 0 4 0 C3.67 2.31 3.34 4.62 3 7 C2.01 7 1.02 7 0 7 C0 4.69 0 2.38 0 0 Z " fill="#054FAB" transform="translate(97,84)"/>
<path d="M0 0 C0.33 0 0.66 0 1 0 C0.67 2.97 0.34 5.94 0 9 C-0.99 9 -1.98 9 -3 9 C-2.44271087 5.65626525 -1.64826111 2.96687001 0 0 Z " fill="#0252B6" transform="translate(86,79)"/>
<path d="M0 0 C0.33 1.32 0.66 2.64 1 4 C1.33 4.66 1.66 5.32 2 6 C0.6875 8.625 0.6875 8.625 -1 11 C-1.66 11 -2.32 11 -3 11 C-2.01 7.37 -1.02 3.74 0 0 Z " fill="#40AEFF" transform="translate(51,68)"/>
<path d="M0 0 C0.99 0.33 1.98 0.66 3 1 C2.67 3.31 2.34 5.62 2 8 C1.34 7.01 0.68 6.02 0 5 C-0.66 5 -1.32 5 -2 5 C-1.34 3.35 -0.68 1.7 0 0 Z " fill="#B9DBFC" transform="translate(93,68)"/>
<path d="M0 0 C1.32 0 2.64 0 4 0 C2.99796679 3.00609963 2.39971554 4.06176821 0 6 C-0.99 6 -1.98 6 -3 6 C-2.67 4.68 -2.34 3.36 -2 2 C-1.34 2 -0.68 2 0 2 C0 1.34 0 0.68 0 0 Z " fill="#BEE2FE" transform="translate(109,66)"/>
<path d="M0 0 C0.99 0 1.98 0 3 0 C1.50902342 3.7952131 -0.75700849 5.61042731 -4 8 C-4 6.68 -4 5.36 -4 4 C-3.01 4 -2.02 4 -1 4 C-0.67 2.68 -0.34 1.36 0 0 Z " fill="#0756B7" transform="translate(42,33)"/>
<path d="M0 0 C0.33 0.99 0.66 1.98 1 3 C2.65 2.67 4.3 2.34 6 2 C6 2.66 6 3.32 6 4 C3.03 4.66 0.06 5.32 -3 6 C-1.125 1.125 -1.125 1.125 0 0 Z " fill="#4EB7FF" transform="translate(108,86)"/>
<path d="M0 0 C0.33 0 0.66 0 1 0 C0.67 2.64 0.34 5.28 0 8 C-0.99 8.33 -1.98 8.66 -3 9 C-2.5020163 5.26512223 -2.12508244 3.18762365 0 0 Z " fill="#EAF7FF" transform="translate(12,92)"/>
<path d="M0 0 C-0.57344937 2.86724686 -0.8614515 3.8614515 -3 6 C-3.99 6 -4.98 6 -6 6 C-3.84615385 0 -3.84615385 0 0 0 Z " fill="#D3ECFF" transform="translate(41,77)"/>
<path d="M0 0 C0.66 0 1.32 0 2 0 C1.67 2.97 1.34 5.94 1 9 C0.67 9 0.34 9 0 9 C0 7.35 0 5.7 0 4 C-0.99 4.33 -1.98 4.66 -3 5 C-1.125 1.125 -1.125 1.125 0 0 Z " fill="#FAFDFF" transform="translate(57,71)"/>
<path d="M0 0 C-1.24176695 0.70226141 -2.49385599 1.38629109 -3.75 2.0625 C-4.79414062 2.63677734 -4.79414062 2.63677734 -5.859375 3.22265625 C-8.36140628 4.1312406 -9.5332355 3.88336837 -12 3 C-10.75823305 2.29773859 -9.50614401 1.61370891 -8.25 0.9375 C-7.20585938 0.36322266 -7.20585938 0.36322266 -6.140625 -0.22265625 C-3.63859372 -1.1312406 -2.4667645 -0.88336837 0 0 Z " fill="#256EC6" transform="translate(60,35)"/>
<path d="M0 0 C0.66 0 1.32 0 2 0 C1.67 2.31 1.34 4.62 1 7 C0.01 7 -0.98 7 -2 7 C-2 5.68 -2 4.36 -2 3 C-1.34 3 -0.68 3 0 3 C0 2.01 0 1.02 0 0 Z " fill="#044BA1" transform="translate(73,85)"/>
<path d="M0 0 C0.66 0.33 1.32 0.66 2 1 C0.68 2.65 -0.64 4.3 -2 6 C-2.99 5.67 -3.98 5.34 -5 5 C-4.67 4.01 -4.34 3.02 -4 2 C-2.68 2 -1.36 2 0 2 C0 1.34 0 0.68 0 0 Z " fill="#0B71DF" transform="translate(128,81)"/>
<path d="M0 0 C0 2.66666667 0 5.33333333 0 8 C-0.99 8 -1.98 8 -3 8 C-3.99 8.495 -3.99 8.495 -5 9 C-3.7508258 5.54074837 -2.32472205 2.85306797 0 0 Z " fill="#B8E0FE" transform="translate(30,52)"/>
<path d="M0 0 C-1.0975223 2.99324263 -1.67682892 3.84610901 -4.625 5.25 C-5.40875 5.4975 -6.1925 5.745 -7 6 C-3.61538462 0 -3.61538462 0 0 0 Z " fill="#1153A5" transform="translate(76,98)"/>
<path d="M0 0 C0.66 0.33 1.32 0.66 2 1 C0.35830472 3.02054804 -1.30911778 5.02043058 -3 7 C-3.33 7 -3.66 7 -4 7 C-4 5.35 -4 3.7 -4 2 C-2.68 2 -1.36 2 0 2 C0 1.34 0 0.68 0 0 Z " fill="#0A5DC1" transform="translate(69,80)"/>
<path d="M0 0 C0.33 0 0.66 0 1 0 C1 1.65 1 3.3 1 5 C0.01 5.33 -0.98 5.66 -2 6 C-2.33 6.66 -2.66 7.32 -3 8 C-3 6.35 -3 4.7 -3 3 C-2.34 3 -1.68 3 -1 3 C-0.67 2.01 -0.34 1.02 0 0 Z " fill="#094693" transform="translate(71,74)"/>
<path d="M0 0 C-0.25561323 2.3431213 -0.59270772 4.67843403 -1 7 C-1.99 7.495 -1.99 7.495 -3 8 C-3 5.69 -3 3.38 -3 1 C-1 0 -1 0 0 0 Z " fill="#FBFDFF" transform="translate(94,72)"/>
<path d="M0 0 C0.66 0 1.32 0 2 0 C1.64950425 3.24208567 1.43778819 4.61527704 -1.0625 6.8125 C-1.701875 7.204375 -2.34125 7.59625 -3 8 C-3 6.68 -3 5.36 -3 4 C-2.01 4 -1.02 4 0 4 C0 2.68 0 1.36 0 0 Z " fill="#064FAA" transform="translate(45,63)"/>
<path d="M0 0 C0.6875 1.75 0.6875 1.75 1 4 C-0.3125 6.25 -0.3125 6.25 -2 8 C-2.66 8 -3.32 8 -4 8 C-2.87548273 5.0280615 -1.77706209 2.66559313 0 0 Z " fill="#2168BF" transform="translate(34,52)"/>
<path d="M0 0 C0.75 1.75 0.75 1.75 1 4 C-0.9375 6.25 -0.9375 6.25 -3 8 C-3.36923077 3.44615385 -3.36923077 3.44615385 -1.5 1.1875 C-1.005 0.795625 -0.51 0.40375 0 0 Z " fill="#074CA1" transform="translate(37,38)"/>
<path d="M0 0 C1.31223496 3.93670488 0.24296256 6.12488144 -1 10 C-1.66 10 -2.32 10 -3 10 C-3 8.68 -3 7.36 -3 6 C-2.34 6 -1.68 6 -1 6 C-0.67 4.02 -0.34 2.04 0 0 Z " fill="#09438A" transform="translate(10,83)"/>
<path d="M0 0 C0 3.3 0 6.6 0 10 C-0.33 10 -0.66 10 -1 10 C-1 7.69 -1 5.38 -1 3 C-1.99 3 -2.98 3 -4 3 C-4 2.34 -4 1.68 -4 1 C-2 0 -2 0 0 0 Z " fill="#085FD0" transform="translate(54,82)"/>
<path d="M0 0 C0.33 0.66 0.66 1.32 1 2 C0.0625 4.625 0.0625 4.625 -1 7 C-1.66 7 -2.32 7 -3 7 C-3.33 7.66 -3.66 8.32 -4 9 C-3.46930939 5.17902761 -2.50298434 2.93828597 0 0 Z " fill="#2C88E9" transform="translate(51,57)"/>
<path d="M0 0 C1.13643966 3.40931897 0.86747764 4.00335456 -0.4375 7.1875 C-0.86869141 8.26064453 -0.86869141 8.26064453 -1.30859375 9.35546875 C-1.53675781 9.89816406 -1.76492187 10.44085938 -2 11 C-2.33 11 -2.66 11 -3 11 C-3.39253254 6.55129785 -2.15305957 3.85756507 0 0 Z " fill="#0A4388" transform="translate(50,52)"/>
</svg>
